<svg width="227" height="227" viewBox="0 0 227 227" fill="none" xmlns="http://www.w3.org/2000/svg">
<path d="M132.396 121.812L133.232 121.765L133.536 122.079C133.854 125.904 133.593 135.002 133.559 139.183C133.51 145.239 133.896 154.707 133.473 160.5C136.498 160.424 139.493 160.313 142.517 160.439C142.494 161.321 142.406 172.374 142.399 172.361C143.851 171.29 149.229 162.946 150.643 160.891L167.571 136.403C170.641 131.953 174.55 125.903 177.83 121.836C180.718 122.004 187.533 121.95 190.329 121.685C190.397 123.294 190.384 125.216 190.335 126.825C189.997 137.94 190.719 149.424 190.247 160.503C193.387 160.429 196.397 160.357 199.537 160.426C199.404 164.229 199.353 170.112 199.599 173.888C197.15 173.712 192.809 173.887 190.182 173.89C190.353 177.277 190.317 180.761 190.321 184.16C190.385 184.874 190.562 185.596 190.207 186.156C187.083 186.54 180.003 186.207 176.246 186.38C176.251 183.189 176.098 176.857 176.478 173.82L133.432 173.889C133.63 177.475 133.316 183.064 133.779 186.306C130.62 186.143 122.087 186.142 119.113 186.457C119.16 182.634 118.96 177.478 119.283 173.801C107.897 174.093 96.0269 173.7 84.5625 173.89C86.3444 171.964 91.5099 164.145 93.3836 161.43L111.204 135.647C113.973 131.635 117.96 125.372 120.911 121.827C124.165 122.036 129.051 121.883 132.396 121.812ZM163.863 160.457C167.981 160.437 172.361 160.345 176.457 160.492C176.023 157.407 176.73 142.867 176.086 141.344C174.803 143.224 163.7 159.713 163.675 160.327L163.863 160.457ZM107.065 160.469C110.948 160.438 115.492 160.299 119.317 160.514C118.564 155.377 119.644 146.499 119.139 141.595C117.947 142.959 106.812 159.702 106.834 160.331L107.065 160.469Z" fill="white"/>
<path d="M26.6288 122.411C28.8722 122.313 31.2987 122.292 33.5514 122.315C48.5793 122.47 63.7238 122.038 78.7399 122.392C77.0374 129.808 75.8373 135.138 70.5068 141.028C68.8029 142.91 65.6012 146.371 64.4154 148.473C58.0583 159.749 69.0222 165.168 74.0221 173.597C76.2529 177.358 77.1538 180.463 78.1367 184.661C78.4054 185.809 78.8339 186.781 78.2908 187.675C75.6271 187.457 71.0716 187.584 68.2962 187.584L49.7611 187.59L35.4829 187.566C33.2302 187.564 28.5984 187.429 26.541 187.855C28.4763 179.575 29.0265 175.604 34.9458 168.742C36.228 167.256 39.4151 163.511 40.4319 161.972C47.8719 150.711 36.6609 144.89 31.4714 136.6C28.764 132.275 27.5922 127.331 26.6288 122.411Z" fill="#1A4096"/>
<path d="M117.65 46.6348C118.286 46.481 119.453 46.5056 120.14 46.4936C131.309 46.2977 142.504 52.3595 148.543 61.7408C150.035 64.0584 151.173 66.8425 152.48 69.2646C147.604 68.9544 141.833 69.4025 136.687 69.1577C134.512 65.9943 132.392 63.1152 128.803 61.5011C119.15 57.1602 108.506 61.6259 104.158 71.0227C101.815 76.0107 101.57 81.7296 103.478 86.8996C107.317 97.3212 117.879 102.275 128.37 98.4463C133.479 96.5821 136.141 93.0508 138.327 88.2426C132.938 88.4341 127.164 88.0207 121.773 88.3656L121.802 77.9766C121.789 77.8673 121.834 77.5693 121.848 77.4428C122.991 77.0395 151.245 77.294 154.002 77.2226C153.887 85.2164 152.075 92.7568 147.258 99.2596C142.002 106.354 134.112 111.034 125.366 112.244C116.79 113.462 108.081 111.231 101.146 106.04C93.9731 100.668 89.3595 93.1246 88.093 84.2288C86.8119 75.4563 89.1511 66.5397 94.5736 59.5257C100.373 51.8689 108.273 47.9197 117.65 46.6348Z" fill="white"/>
<path d="M64.6676 47.2653C66.9979 47.4739 76.8198 47.5661 79.0865 47.1414C78.7795 50.5375 78.9874 57.0119 78.9938 60.6295C78.9881 69.4049 79.0747 78.4824 78.9803 87.1255C78.8141 104.249 68.1056 112.986 51.488 112.623C35.3507 112.271 25.9206 103.414 25.8501 87.1685C25.8268 81.7883 25.6495 76.1834 25.7479 70.7655C25.8898 62.954 25.5176 55.0214 25.7601 47.2234C28.0259 47.4994 37.7993 47.5652 40.0709 47.1418C40.0332 47.5641 39.9829 48.046 39.9833 48.4681C39.994 59.8507 39.9024 71.2395 40.0228 82.621C40.0361 85.2984 40.2442 87.64 40.6652 90.2862C41.8824 98.2687 50.649 99.2352 57.0812 97.7903C59.0821 97.3797 62.269 95.3212 63.0415 93.3569C65.3707 87.435 64.7024 79.3348 64.7013 72.9972L64.6676 47.2653Z" fill="white"/>
<path d="M162.692 47.2569C164.273 47.5039 174.632 47.4675 176.563 47.4076C183.67 47.1866 192.858 47.7852 199.796 47.1685C199.781 49.8692 199.571 58.3912 200.027 60.4575C192.97 59.9 183.927 60.6732 176.642 60.3347C176.857 63.2919 176.917 70.2247 176.726 73.179C181.468 72.989 186.393 73.1999 191.147 73.1258C193.496 73.0892 196.517 73.252 198.794 72.8656C198.518 75.7864 198.694 83.1005 198.791 86.1732C196.712 85.9493 194.283 86.0857 192.17 86.0471C187.112 85.9542 181.665 86.2841 176.641 86.0493C176.755 87.2233 176.749 88.6392 176.775 89.8356C176.798 92.6436 176.904 96.1508 176.726 98.8936C184.045 98.5835 192.632 99.239 199.795 98.5979C199.781 101.301 199.571 109.821 200.028 111.89C195.08 111.496 186.274 111.787 181.11 111.767C176.453 111.75 166.944 111.518 162.564 111.971C162.747 106.774 162.584 100.434 162.585 95.1519L162.586 62.6348C162.583 60.3513 162.402 48.3988 162.692 47.2569Z" fill="white"/>
<path d="M32.64 202H35.304V204.808H33.768C33.024 204.808 32.832 205.216 32.832 206.248V209.416H35.304V212.2H32.832V220H29.232V212.2H27.72V209.416H29.232V205.816C29.232 203.2 30.72 202 32.64 202ZM42.6068 217.504C44.5268 217.504 45.0548 216.088 45.0548 214.744C45.0548 213.424 44.4788 212.008 42.6068 212.008C40.7108 212.008 40.1348 213.424 40.1348 214.744C40.1348 216.088 40.6628 217.504 42.6068 217.504ZM42.6068 209.2C45.8948 209.2 48.6308 211.408 48.6308 214.72C48.6308 218.104 45.9668 220.216 42.6068 220.216C39.2228 220.216 36.5588 218.104 36.5588 214.72C36.5588 211.408 39.2948 209.2 42.6068 209.2ZM54.5166 215.32V220H50.9166V202H54.5166V213.616L57.9006 209.416H62.3646L57.8046 214.456L62.8446 220H58.2366L54.5166 215.32ZM63.3328 215.44V209.416H66.9328V215.44C66.9328 216.664 67.4128 217.36 68.5408 217.36C69.6688 217.36 70.5568 216.136 70.5568 214.72V209.416H74.1568V220H70.5568V218.704C69.8368 219.616 68.7088 220.24 67.3168 220.24C64.4848 220.24 63.3328 218.296 63.3328 215.44ZM86.8179 212.632H83.2899C83.1699 211.672 82.2819 211.408 81.5859 211.408C80.8899 211.408 80.1459 211.768 80.1459 212.392C80.1459 213.88 86.9859 212.368 86.9859 216.832C86.9859 219.328 84.8499 220.24 81.7779 220.24C78.6339 220.24 76.2579 219.064 76.0659 216.064H79.6419C79.6419 217.648 81.0579 217.744 81.8499 217.744C82.6659 217.744 83.3619 217.432 83.3619 216.856C83.3619 214.624 76.5219 216.376 76.5219 212.536C76.5219 210.376 78.1779 209.176 81.6819 209.176C84.4659 209.176 86.5059 210.208 86.8179 212.632ZM98.7431 214.72C98.7431 216.112 99.8231 217.36 101.263 217.36C102.703 217.36 103.783 216.112 103.783 214.72C103.783 213.328 102.703 212.08 101.263 212.08C99.8231 212.08 98.7431 213.328 98.7431 214.72ZM98.7431 226H95.1431V209.416H98.7431V210.712C99.6791 209.56 100.999 209.176 102.367 209.176C105.367 209.176 107.623 211.792 107.623 214.72C107.623 217.648 105.367 220.24 102.367 220.24C100.999 220.24 99.4631 219.808 98.7431 218.728V226ZM115.093 206.56C116.125 206.56 116.389 205.792 116.389 205.096C116.389 204.376 116.101 203.632 115.093 203.632C114.085 203.632 113.797 204.376 113.797 205.096C113.797 205.792 114.061 206.56 115.093 206.56ZM115.093 202.144C116.845 202.144 118.309 203.32 118.309 205.072C118.309 206.872 116.893 208 115.093 208C113.293 208 111.877 206.872 111.877 205.072C111.877 203.32 113.341 202.144 115.093 202.144ZM118.189 214.72C118.189 213.328 117.109 212.08 115.669 212.08C114.229 212.08 113.149 213.328 113.149 214.72C113.149 216.112 114.229 217.36 115.669 217.36C117.109 217.36 118.189 216.112 118.189 214.72ZM121.789 209.44V220H118.189V218.728C117.469 219.808 115.909 220.24 114.565 220.24C111.565 220.24 109.309 217.648 109.309 214.72C109.309 211.792 111.565 209.176 114.565 209.176C115.909 209.176 117.253 209.56 118.189 210.712V209.44H121.789ZM138.954 214.72C138.954 213.328 137.874 212.08 136.434 212.08C134.994 212.08 133.914 213.328 133.914 214.72C133.914 216.112 134.994 217.36 136.434 217.36C137.874 217.36 138.954 216.112 138.954 214.72ZM142.554 202V220H138.954V218.728C138.234 219.808 136.674 220.24 135.33 220.24C132.33 220.24 130.074 217.648 130.074 214.72C130.074 211.792 132.33 209.176 135.33 209.176C136.674 209.176 138.018 209.56 138.954 210.712V202H142.554ZM145.728 220.792L144.864 219.952L146.328 218.512C145.392 217.576 144.84 216.28 144.84 214.72C144.84 211.408 147.576 209.2 150.888 209.2C152.256 209.2 153.552 209.608 154.56 210.304L156.144 208.72L156.984 209.56L155.472 211.072C156.36 212.008 156.888 213.256 156.888 214.72C156.888 218.104 154.224 220.216 150.864 220.216C149.52 220.216 148.272 219.88 147.264 219.256L145.728 220.792ZM150.864 217.528C152.784 217.528 153.312 216.112 153.312 214.768C153.312 214.312 153.264 213.856 153.096 213.448L149.4 217.12C149.76 217.36 150.24 217.528 150.864 217.528ZM148.656 216.184L152.376 212.464C152.016 212.2 151.536 212.032 150.864 212.032C148.968 212.032 148.392 213.448 148.392 214.768C148.392 215.248 148.464 215.752 148.656 216.184ZM167.478 214.72C167.478 213.328 166.398 212.08 164.958 212.08C163.518 212.08 162.438 213.328 162.438 214.72C162.438 216.112 163.518 217.36 164.958 217.36C166.398 217.36 167.478 216.112 167.478 214.72ZM171.078 202V220H167.478V218.728C166.758 219.808 165.198 220.24 163.854 220.24C160.854 220.24 158.598 217.648 158.598 214.72C158.598 211.792 160.854 209.176 163.854 209.176C165.198 209.176 166.542 209.56 167.478 210.712V202H171.078ZM177.227 213.448H181.955C181.955 213.448 181.787 211.48 179.603 211.48C177.347 211.48 177.227 213.448 177.227 213.448ZM185.411 214.48C185.411 214.696 185.387 214.936 185.387 215.152H177.179C177.179 216.376 178.043 217.672 179.459 217.672C180.731 217.672 181.523 216.832 181.547 216.064H185.219C184.595 218.848 182.339 220.24 179.531 220.24C175.883 220.24 173.363 218.08 173.363 214.72C173.363 211.408 175.979 209.176 179.531 209.176C182.747 209.176 185.411 211.096 185.411 214.48ZM198.522 214V220H194.922V214C194.922 212.752 194.442 212.08 193.314 212.08C192.186 212.08 191.298 213.28 191.298 214.72V220H187.698V209.416H191.298V210.712C192.018 209.8 193.146 209.176 194.538 209.176C197.37 209.176 198.522 211.12 198.522 214Z" fill="white"/>
</svg>
